<svg width="48" height="48" viewBox="0 0 48 48" fill="none" xmlns="http://www.w3.org/2000/svg">
<g filter="url(#filter0_d)">
<path d="M41.8292 17.2092H26.7906V2.17054C26.7906 1.48546 25.8604 0 23.9999 0C22.1395 0 21.2092 1.48555 21.2092 2.17054V17.2093H6.17054C5.48554 17.2092 4 18.1395 4 19.9998C4 21.8602 5.48554 22.7906 6.17054 22.7906H21.2093V37.8293C21.2093 38.5142 22.1395 39.9999 24 39.9999C25.8605 39.9999 26.7907 38.5142 26.7907 37.8293V22.7906H41.8295C42.5144 22.7906 44 21.8604 44 19.9998C44 18.1393 42.5142 17.2092 41.8292 17.2092Z" fill="white"/>
</g>
<defs>
<filter id="filter0_d" x="0" y="0" width="48" height="47.9999" filterUnits="userSpaceOnUse" color-interpolation-filters="sRGB">
<feFlood flood-opacity="0" result="BackgroundImageFix"/>
<feColorMatrix in="SourceAlpha" type="matrix" values="0 0 0 0 0 0 0 0 0 0 0 0 0 0 0 0 0 0 127 0"/>
<feOffset dy="4"/>
<feGaussianBlur stdDeviation="2"/>
<feColorMatrix type="matrix" values="0 0 0 0 0 0 0 0 0 0 0 0 0 0 0 0 0 0 0.25 0"/>
<feBlend mode="normal" in2="BackgroundImageFix" result="effect1_dropShadow"/>
<feBlend mode="normal" in="SourceGraphic" in2="effect1_dropShadow" result="shape"/>
</filter>
</defs>
</svg>
