<svg width="48" height="48" viewBox="0 0 48 48" fill="none" xmlns="http://www.w3.org/2000/svg">
<g filter="url(#filter0_d)">
<path d="M43.5056 2.1609C43.176 1.83143 42.7852 1.66615 42.3337 1.66615C41.8824 1.66615 41.4922 1.83143 41.1619 2.1609L37.7767 5.52077C35.9191 3.76709 33.7921 2.40827 31.3964 1.44495C29.001 0.48155 26.535 -6.10352e-05 24.0001 -6.10352e-05C19.2256 -6.10352e-05 15.0592 1.44505 11.5 4.3359C7.94072 7.22639 5.59707 10.9977 4.46857 15.6508V15.833C4.46857 16.0587 4.55093 16.2541 4.71594 16.4189C4.88095 16.5839 5.07614 16.6662 5.30181 16.6662H10.484C10.8661 16.6662 11.1264 16.4665 11.2654 16.0674C11.9945 14.3314 12.4544 13.3159 12.6455 13.0206C13.8607 11.0414 15.4753 9.4875 17.4893 8.35899C19.5035 7.23058 21.6735 6.66615 23.9998 6.66615C27.4897 6.66615 30.5191 7.85549 33.0888 10.234L29.4944 13.8276C29.1654 14.1575 28.9999 14.5483 28.9999 14.9998C28.9999 15.4511 29.1653 15.8418 29.4944 16.1716C29.8247 16.5015 30.2155 16.6663 30.6669 16.6663H42.3337C42.7851 16.6663 43.1759 16.5015 43.5056 16.1716C43.8352 15.8418 44 15.4512 44 14.9998V3.33282C44 2.8814 43.8362 2.49091 43.5056 2.1609Z" fill="white"/>
<path d="M42.5154 23.3334H37.5154C37.1334 23.3334 36.873 23.5329 36.7344 23.9323C36.0056 25.6685 35.5452 26.6836 35.3545 26.9789C34.1389 28.9576 32.5243 30.5121 30.5108 31.6405C28.4965 32.7693 26.3265 33.3331 24.0001 33.3331C22.3162 33.3331 20.6928 33.0208 19.1305 32.396C17.568 31.7705 16.1702 30.8849 14.9377 29.739L18.5056 26.1714C18.8353 25.8418 19.0003 25.4507 19.0003 24.9996C19.0003 24.5482 18.8353 24.1571 18.5056 23.8277C18.1757 23.4975 17.7852 23.3323 17.3338 23.3323H5.66685C5.21515 23.3323 4.82448 23.4975 4.49465 23.8277C4.16482 24.1572 4 24.5483 4 24.9996L4 36.6666C4 37.1176 4.16482 37.5087 4.49474 37.8384C4.82485 38.1677 5.21552 38.3335 5.66694 38.3335C6.11826 38.3335 6.50875 38.1678 6.83876 37.8384L10.1981 34.4787C12.0558 36.2492 14.1697 37.6124 16.5396 38.5672C18.9094 39.5224 21.3617 39.9994 23.8962 39.9994C28.6535 39.9994 32.8027 38.5541 36.3443 35.6636C39.886 32.7732 42.2124 29.0011 43.324 24.3485C43.3414 24.3138 43.3496 24.253 43.3496 24.1665C43.3496 23.9405 43.2669 23.7458 43.102 23.5803C42.9369 23.4162 42.7414 23.3334 42.5154 23.3334Z" fill="white"/>
</g>
<defs>
<filter id="filter0_d" x="0" y="-6.10352e-05" width="48" height="47.9994" filterUnits="userSpaceOnUse" color-interpolation-filters="sRGB">
<feFlood flood-opacity="0" result="BackgroundImageFix"/>
<feColorMatrix in="SourceAlpha" type="matrix" values="0 0 0 0 0 0 0 0 0 0 0 0 0 0 0 0 0 0 127 0"/>
<feOffset dy="4"/>
<feGaussianBlur stdDeviation="2"/>
<feColorMatrix type="matrix" values="0 0 0 0 0 0 0 0 0 0 0 0 0 0 0 0 0 0 0.25 0"/>
<feBlend mode="normal" in2="BackgroundImageFix" result="effect1_dropShadow"/>
<feBlend mode="normal" in="SourceGraphic" in2="effect1_dropShadow" result="shape"/>
</filter>
</defs>
</svg>
